<svg width="66" height="60" viewBox="0 0 66 60" fill="none" xmlns="http://www.w3.org/2000/svg" xmlns:xlink="http://www.w3.org/1999/xlink">
<path d="M7.695,46.497L25.195,46.497L25.195,55.472L16.09,55.472C15.902,55.472 15.715,55.508 15.541,55.58C15.367,55.652 15.209,55.757 15.076,55.89C14.942,56.023 14.836,56.18 14.764,56.354C14.692,56.528 14.655,56.714 14.655,56.903C14.655,57.091 14.692,57.277 14.764,57.451C14.836,57.625 14.942,57.783 15.076,57.916C15.209,58.049 15.367,58.154 15.541,58.225C15.715,58.297 15.902,58.334 16.09,58.333L49.91,58.333C50.098,58.334 50.285,58.297 50.459,58.225C50.633,58.154 50.791,58.049 50.925,57.916C51.058,57.783 51.164,57.625 51.236,57.451C51.308,57.277 51.345,57.091 51.345,56.903C51.345,56.714 51.308,56.528 51.236,56.354C51.164,56.18 51.058,56.023 50.925,55.89C50.791,55.757 50.633,55.652 50.459,55.58C50.285,55.508 50.098,55.472 49.91,55.472L40.805,55.472L40.805,46.497L58.306,46.497C60.073,46.497 61.78,45.847 63.1,44.671C64.42,43.495 65.263,41.876 65.467,40.12L0.533,40.12C0.737,41.876 1.58,43.495 2.9,44.671C4.221,45.847 5.927,46.496 7.695,46.497Z" fill="#F7F7F7"/>
<path d="M58.305,-0.333L7.695,-0.333C5.782,-0.333 3.947,0.427 2.594,1.78C1.241,3.133 0.48,4.968 0.48,6.882L0.48,37.259L65.519,37.259L65.519,6.882C65.52,5.934 65.333,4.996 64.97,4.121C64.608,3.245 64.077,2.45 63.407,1.78C62.737,1.11 61.942,0.579 61.066,0.216C60.191,-0.146 59.253,-0.333 58.305,-0.333ZM25.085,25.474C25.189,25.63 25.261,25.805 25.298,25.99C25.334,26.174 25.334,26.364 25.298,26.548C25.261,26.732 25.188,26.907 25.083,27.063C24.979,27.22 24.845,27.354 24.688,27.458C24.532,27.562 24.357,27.635 24.172,27.671C23.988,27.708 23.798,27.707 23.614,27.671C23.43,27.634 23.255,27.561 23.099,27.457C22.942,27.352 22.808,27.218 22.704,27.062L17.501,19.257C17.345,19.022 17.261,18.745 17.261,18.463C17.261,18.18 17.345,17.904 17.501,17.669L22.704,9.864C22.808,9.708 22.942,9.574 23.099,9.469C23.255,9.365 23.43,9.292 23.614,9.255C23.798,9.218 23.988,9.218 24.172,9.255C24.357,9.291 24.532,9.364 24.688,9.468C24.845,9.572 24.979,9.706 25.083,9.862C25.188,10.019 25.261,10.194 25.298,10.378C25.334,10.562 25.334,10.752 25.298,10.936C25.261,11.121 25.189,11.296 25.085,11.452L20.411,18.463L25.085,25.474ZM37.617,8.483L31.114,29.296C31.058,29.476 30.967,29.643 30.847,29.787C30.727,29.932 30.579,30.052 30.412,30.139C30.246,30.227 30.063,30.28 29.876,30.297C29.689,30.314 29.5,30.294 29.32,30.238C29.14,30.182 28.974,30.091 28.829,29.97C28.685,29.85 28.566,29.702 28.479,29.535C28.392,29.368 28.338,29.186 28.322,28.998C28.305,28.811 28.326,28.622 28.382,28.442L34.886,7.63C34.942,7.45 35.033,7.283 35.153,7.138C35.273,6.994 35.421,6.874 35.588,6.787C35.754,6.699 35.936,6.645 36.124,6.628C36.311,6.611 36.5,6.631 36.68,6.688C36.859,6.744 37.026,6.835 37.171,6.956C37.315,7.076 37.434,7.224 37.521,7.391C37.608,7.558 37.662,7.74 37.678,7.928C37.695,8.115 37.674,8.304 37.617,8.483ZM48.499,19.257L43.296,27.062C43.191,27.218 43.057,27.352 42.901,27.457C42.745,27.561 42.57,27.634 42.386,27.671C42.014,27.745 41.627,27.668 41.311,27.458C41.155,27.354 41.021,27.22 40.916,27.063C40.812,26.907 40.739,26.732 40.702,26.548C40.628,26.176 40.705,25.789 40.915,25.474L45.589,18.463L40.915,11.452C40.705,11.136 40.628,10.75 40.702,10.378C40.777,10.006 40.996,9.678 41.312,9.468C41.627,9.257 42.014,9.181 42.386,9.255C42.758,9.329 43.085,9.549 43.296,9.864L48.499,17.669C48.655,17.904 48.739,18.18 48.739,18.463C48.739,18.745 48.655,19.022 48.499,19.257Z" fill="#F7F7F7"/>
</svg>
