<svg width="82" height="82" viewBox="0 0 82 82" fill="none" xmlns="http://www.w3.org/2000/svg" xmlns:xlink="http://www.w3.org/1999/xlink">
<rect  x="19.211" y="11.531" width="46.125" height="58.938" rx="8" fill="#3A3A3A"/>
<path d="M26.819,41.281C26.267,41.281 25.819,41.729 25.819,42.281C25.819,42.834 26.267,43.281 26.819,43.281L26.819,41.281ZM57.569,43.281C58.121,43.281 58.569,42.834 58.569,42.281C58.569,41.729 58.121,41.281 57.569,41.281L57.569,43.281ZM26.819,48.969C26.267,48.969 25.819,49.416 25.819,49.969C25.819,50.521 26.267,50.969 26.819,50.969L26.819,48.969ZM47.319,50.969C47.871,50.969 48.319,50.521 48.319,49.969C48.319,49.416 47.871,48.969 47.319,48.969L47.319,50.969ZM26.819,56.656C26.267,56.656 25.819,57.104 25.819,57.656C25.819,58.209 26.267,58.656 26.819,58.656L26.819,56.656ZM42.194,58.656C42.746,58.656 43.194,58.209 43.194,57.656C43.194,57.104 42.746,56.656 42.194,56.656L42.194,58.656ZM26.819,43.281L57.569,43.281L57.569,41.281L26.819,41.281L26.819,43.281ZM26.819,50.969L47.319,50.969L47.319,48.969L26.819,48.969L26.819,50.969ZM26.819,58.656L42.194,58.656L42.194,56.656L26.819,56.656L26.819,58.656Z" fill="#FFFFFF"/>
<path d="M31.903,17.54C28.792,17.54 26.268,19.698 26.268,23.621C26.268,27.547 31.529,31.327 36.039,35.383C40.549,31.327 45.833,27.596 45.833,23.621C45.833,19.649 43.309,17.54 40.195,17.54C38.555,17.54 37.069,18.765 36.039,19.975C35.009,18.77 33.541,17.54 31.906,17.54L31.903,17.54Z" fill="#3A3A3A"/>
<path d="M39.232,17.551C38.968,17.551 38.704,17.604 38.45,17.661C41.074,18.078 42.268,20.169 42.268,23.693C42.268,27.409 38.453,30.822 34.168,34.573C34.468,34.84 34.76,35.086 35.058,35.352C39.568,31.298 44.849,27.588 44.849,23.616C44.849,19.642 42.343,17.551 39.229,17.551L39.232,17.551Z" fill="#F5F5F5"/>
<path d="M33.082,17.551C33.343,17.551 33.61,17.604 33.861,17.661C31.239,18.078 30.245,20.087 30.245,23.613C30.245,27.329 33.179,31.181 37.464,34.935C37.164,35.199 37.551,35.086 37.254,35.352C32.744,31.298 27.462,27.588 27.462,23.616C27.462,19.642 29.968,17.551 33.082,17.551Z" fill="#3A3A3A"/>
<path d="M36.039,35.383L35.37,36.127C35.751,36.468 36.327,36.468 36.708,36.127L36.039,35.383ZM36.039,19.975L35.279,20.625C35.469,20.847 35.747,20.975 36.04,20.975C36.333,20.974 36.611,20.846 36.8,20.623L36.039,19.975ZM31.903,16.54C30.114,16.54 28.438,17.164 27.209,18.406C25.975,19.651 25.268,21.439 25.268,23.621L27.268,23.621C27.268,21.88 27.823,20.627 28.63,19.813C29.44,18.995 30.581,18.54 31.903,18.54L31.903,16.54ZM25.268,23.621C25.268,26.011 26.851,28.191 28.744,30.148C30.652,32.122 33.18,34.156 35.37,36.127L36.708,34.639C34.388,32.553 32.03,30.67 30.181,28.758C28.316,26.829 27.268,25.157 27.268,23.621L25.268,23.621ZM36.708,36.127C38.892,34.161 41.432,32.133 43.344,30.169C45.244,28.216 46.833,26.036 46.833,23.621L44.833,23.621C44.833,25.181 43.779,26.853 41.911,28.774C40.053,30.683 37.696,32.548 35.37,34.639L36.708,36.127ZM46.833,23.621C46.833,21.417 46.127,19.627 44.89,18.385C43.657,17.148 41.979,16.54 40.195,16.54L40.195,18.54C41.525,18.54 42.666,18.987 43.473,19.797C44.276,20.603 44.833,21.853 44.833,23.621L46.833,23.621ZM40.195,16.54C38.086,16.54 36.341,18.077 35.278,19.326L36.8,20.623C37.797,19.453 39.025,18.54 40.195,18.54L40.195,16.54ZM36.799,19.325C35.742,18.089 34.014,16.54 31.906,16.54L31.906,18.54C33.067,18.54 34.276,19.452 35.279,20.625L36.799,19.325ZM31.906,16.54L31.903,16.54L31.903,18.54L31.906,18.54L31.906,16.54Z" fill="#FFFFFF"/>
<path d="M27.211,12.531L57.336,12.531L57.336,10.531L27.211,10.531L27.211,12.531ZM64.336,19.531L64.336,62.469L66.336,62.469L66.336,19.531L64.336,19.531ZM57.336,69.469L27.211,69.469L27.211,71.469L57.336,71.469L57.336,69.469ZM20.211,62.469L20.211,19.531L18.211,19.531L18.211,62.469L20.211,62.469ZM27.211,69.469C23.345,69.469 20.211,66.335 20.211,62.469L18.211,62.469C18.211,67.439 22.241,71.469 27.211,71.469L27.211,69.469ZM64.336,62.469C64.336,66.335 61.202,69.469 57.336,69.469L57.336,71.469C62.307,71.469 66.336,67.439 66.336,62.469L64.336,62.469ZM57.336,12.531C61.202,12.531 64.336,15.665 64.336,19.531L66.336,19.531C66.336,14.561 62.307,10.531 57.336,10.531L57.336,12.531ZM27.211,10.531C22.241,10.531 18.211,14.561 18.211,19.531L20.211,19.531C20.211,15.665 23.345,12.531 27.211,12.531L27.211,10.531Z" fill="#FFFFFF"/>
</svg>
