<svg width="68" height="68" viewBox="0 0 68 68" fill="none" xmlns="http://www.w3.org/2000/svg" xmlns:xlink="http://www.w3.org/1999/xlink">
<path d="M67.004,33.724C66.911,34.198 66.186,37.586 62.925,39.399C61.339,40.269 59.507,40.579 57.723,40.281C57.285,40.213 56.854,40.108 56.435,39.967C56.437,40.311 56.424,40.652 56.396,40.99C56.089,44.669 53.979,47.856 50.872,49.236C48.166,50.44 45.571,49.884 44.196,49.417C43.881,49.311 43.572,49.187 43.27,49.048C43.354,49.388 43.425,49.712 43.484,50.02C44.074,53.116 43.452,54.733 42.655,55.646C41.003,57.538 38.061,57.026 37.553,58.671C37.129,60.038 39.015,60.842 38.894,62.803C38.781,64.62 36.986,66.813 34.481,66.992C31.831,67.182 29.774,65.024 29.432,63.179C29.063,61.188 30.835,60.329 30.326,58.759C29.654,56.687 26.256,57.22 24.73,54.911C24.18,54.08 23.712,52.638 24.435,49.999C24.517,49.697 24.614,49.381 24.73,49.048C24.428,49.188 24.118,49.311 23.803,49.417C22.428,49.884 19.833,50.44 17.127,49.236C14.013,47.852 11.9,44.653 11.602,40.962C11.575,40.634 11.562,40.303 11.565,39.967C11.251,40.074 10.929,40.16 10.602,40.222C8.721,40.613 6.761,40.321 5.075,39.399C1.814,37.586 1.089,34.198 0.996,33.724C4.982,30.305 6.483,27.019 7.115,24.643C8.222,20.48 5.784,12.645 10.913,10.596C13.809,9.438 15.046,11.766 17.121,13.129C18.859,14.272 22.241,15.191 23.951,13.516C25.483,12.016 23.775,9.779 24.759,6.87C25.852,3.644 29.796,0.958 34,0.996C37.797,1.032 41.46,3.288 42.759,6.293C44.056,9.296 42.424,11.726 44.201,13.342C45.863,14.854 48.807,14.106 49.018,14.05C52.009,13.249 53.397,9.246 56.95,10.545C62.242,12.48 59.771,20.457 60.885,24.643C61.517,27.019 63.018,30.305 67.004,33.724Z" fill="#F7F7F7"/>
<path d="M7.581,39.967C7.478,40.003 7.264,40.073 6.962,40.147C7.173,40.2 7.381,40.243 7.585,40.277C7.583,40.174 7.58,40.071 7.581,39.967ZM38.775,6.293C40.072,9.296 38.44,11.726 40.217,13.342C41.878,14.854 44.823,14.106 45.034,14.05C45.112,14.029 45.188,14.006 45.265,13.981C44.873,13.837 44.512,13.621 44.201,13.342C42.424,11.726 44.057,9.296 42.759,6.293C41.46,3.288 37.797,1.032 34,0.996C33.301,0.991 32.602,1.059 31.917,1.199C34.982,1.817 37.695,3.796 38.775,6.293ZM54.842,39.452C54.783,39.438 54.606,39.398 54.352,39.33C54.049,39.26 53.752,39.168 53.464,39.054C53.257,38.959 52.887,38.729 52.576,38.105L52.412,40.99C52.105,44.669 49.995,47.856 46.888,49.236C46.402,49.453 45.895,49.622 45.376,49.742C46.818,50.049 48.813,50.152 50.873,49.236C53.979,47.856 56.089,44.669 56.396,40.99C56.415,40.752 56.426,40.515 56.43,40.276C55.686,39.733 55.176,39.533 54.842,39.452ZM60.885,24.643C59.771,20.457 62.243,12.48 56.95,10.545C55.623,10.06 54.597,10.315 53.678,10.866C58.028,13.241 55.84,20.659 56.901,24.643C57.533,27.019 59.034,30.305 63.02,33.724C62.927,34.198 62.201,37.586 58.941,39.399C58.347,39.729 57.712,39.981 57.053,40.146C57.243,40.193 57.468,40.24 57.723,40.281C59.507,40.579 61.339,40.269 62.925,39.399C66.186,37.586 66.911,34.198 67.004,33.724C63.018,30.305 61.517,27.019 60.885,24.643ZM13.136,13.129C14.632,14.112 17.343,14.928 19.16,14.071C18.441,13.851 17.755,13.534 17.121,13.129C15.046,11.766 13.809,9.438 10.913,10.596C10.702,10.68 10.496,10.779 10.298,10.89C11.246,11.497 12.083,12.437 13.136,13.129ZM43.472,49.96C42.767,49.837 42.107,49.531 41.557,49.072C40.168,47.898 40.104,46.177 40.097,45.88C39.977,46.858 39.989,47.847 40.132,48.821C40.265,49.708 40.405,49.877 40.484,50.723C40.549,51.419 40.653,52.533 40.211,53.648C40.06,54.028 39.721,54.723 38.671,55.646C36.112,57.894 33.977,57.352 33.568,58.671C33.145,60.038 35.031,60.841 34.91,62.803C34.824,64.183 33.768,65.778 32.168,66.545C32.886,66.894 33.684,67.048 34.481,66.992C36.986,66.813 38.781,64.62 38.894,62.803C39.015,60.841 37.129,60.038 37.553,58.671C38.057,57.044 40.995,57.567 42.655,55.646C43.986,54.106 43.838,51.77 43.472,49.96Z" fill="#F7F7F7"/>
<path d="M30.879,9.495C32.245,9.495 33.353,8.693 33.353,7.703C33.353,6.713 32.245,5.911 30.879,5.911C29.512,5.911 28.404,6.713 28.404,7.703C28.404,8.693 29.512,9.495 30.879,9.495Z" transform="rotate(-107.14 30.879 7.703)" fill="#B2B0B0"/>
<path d="M32.38,5.736C31.995,5.434 31.482,5.375 30.961,5.525C31.105,5.572 31.24,5.644 31.359,5.736C32.137,6.348 32.096,7.725 31.267,8.811C30.896,9.317 30.374,9.692 29.776,9.881C30.551,10.142 31.587,9.728 32.288,8.811C33.117,7.725 33.158,6.348 32.38,5.736Z" fill="#B2B0B0"/>
<path d="M37.652,10.178C38.642,10.178 39.444,9.07 39.444,7.703C39.444,6.337 38.642,5.229 37.652,5.229C36.663,5.229 35.86,6.337 35.86,7.703C35.86,9.07 36.663,10.178 37.652,10.178Z" transform="rotate(-72.86 37.652 7.703)" fill="#B2B0B0"/>
<path d="M39.061,6.595C38.346,5.659 37.281,5.246 36.502,5.541C37.078,5.737 37.58,6.105 37.941,6.595C38.77,7.681 38.811,9.058 38.033,9.67C37.927,9.752 37.809,9.818 37.683,9.865C38.221,10.034 38.756,9.983 39.154,9.67C39.932,9.058 39.89,7.681 39.061,6.595Z" fill="#B2B0B0"/>
<path d="M34,18.195C35.174,18.195 36.125,16.709 36.125,14.875C36.125,13.041 35.174,11.555 34,11.555C32.826,11.555 31.875,13.041 31.875,14.875C31.875,16.709 32.826,18.195 34,18.195Z" fill="#B2B0B0"/>
<path d="M34,11.555C33.728,11.557 33.462,11.635 33.231,11.78C34.024,12.261 34.587,13.465 34.587,14.875C34.587,16.285 34.024,17.489 33.231,17.97C33.462,18.115 33.728,18.193 34,18.195C35.174,18.195 36.125,16.709 36.125,14.875C36.125,13.041 35.174,11.555 34,11.555Z" fill="#B2B0B0"/>
<path d="M18.106,35.066C17.621,36.34 16.877,37.5 15.922,38.472C14.79,39.614 13.391,40.456 11.852,40.921C11.771,40.946 11.687,40.959 11.603,40.962C11.575,40.634 11.562,40.302 11.565,39.967C11.251,40.074 10.929,40.159 10.602,40.222C10.536,39.972 10.569,39.706 10.696,39.481C10.822,39.255 11.031,39.087 11.278,39.012C12.499,38.644 13.608,37.977 14.506,37.072C15.266,36.297 15.858,35.373 16.244,34.359C16.29,34.235 16.359,34.121 16.449,34.025C16.538,33.928 16.646,33.85 16.766,33.795C16.886,33.741 17.016,33.71 17.147,33.706C17.279,33.702 17.41,33.724 17.533,33.771C17.657,33.817 17.769,33.888 17.865,33.979C17.961,34.07 18.037,34.178 18.09,34.299C18.144,34.419 18.173,34.549 18.175,34.681C18.178,34.813 18.155,34.944 18.106,35.066ZM29.985,44.634C29.108,46.948 27.388,48.843 25.171,49.94C25.034,50.008 24.883,50.044 24.73,50.044C24.63,50.044 24.53,50.029 24.435,49.999C24.517,49.697 24.614,49.381 24.73,49.048C24.428,49.187 24.118,49.311 23.803,49.417C23.71,49.184 23.709,48.925 23.799,48.691C23.889,48.458 24.063,48.266 24.287,48.155C26.055,47.281 27.425,45.769 28.123,43.925C28.217,43.678 28.405,43.479 28.646,43.371C28.888,43.263 29.162,43.255 29.409,43.349C29.656,43.443 29.855,43.631 29.963,43.872C30.071,44.113 30.079,44.387 29.985,44.634ZM44.196,49.417C43.881,49.311 43.572,49.187 43.27,49.048C43.354,49.388 43.425,49.712 43.484,50.02C43.414,50.036 43.342,50.044 43.27,50.044C43.093,50.043 42.919,49.996 42.767,49.906C40.798,48.752 39.277,46.966 38.453,44.838C38.404,44.715 38.379,44.585 38.381,44.453C38.382,44.321 38.41,44.191 38.462,44.07C38.514,43.949 38.59,43.84 38.685,43.748C38.78,43.657 38.892,43.585 39.014,43.537C39.137,43.489 39.268,43.466 39.4,43.469C39.531,43.472 39.661,43.501 39.781,43.554C39.902,43.608 40.01,43.685 40.101,43.781C40.191,43.876 40.262,43.989 40.309,44.112C40.97,45.824 42.192,47.26 43.775,48.188C43.98,48.309 44.136,48.499 44.213,48.725C44.29,48.95 44.284,49.196 44.196,49.417ZM57.723,40.281C57.285,40.213 56.854,40.108 56.435,39.967C56.437,40.311 56.424,40.652 56.396,40.99C54.988,40.554 53.699,39.801 52.627,38.79C51.555,37.779 50.728,36.536 50.21,35.157C50.119,34.911 50.13,34.639 50.239,34.4C50.347,34.162 50.546,33.976 50.791,33.883C51.036,33.789 51.308,33.797 51.548,33.903C51.787,34.009 51.976,34.205 52.072,34.449C52.458,35.463 53.05,36.387 53.81,37.162C54.708,38.068 55.818,38.735 57.039,39.104C57.281,39.177 57.486,39.339 57.613,39.557C57.74,39.776 57.779,40.034 57.723,40.281Z" fill="#F7F7F7"/>
</svg>
