<svg width="48" height="52" viewBox="0 0 48 52" fill="none" xmlns="http://www.w3.org/2000/svg" xmlns:xlink="http://www.w3.org/1999/xlink">
<path d="M23,27.873C31.025,27.873 37.531,21.447 37.531,13.52C37.531,5.593 31.025,-0.833 23,-0.833C14.975,-0.833 8.469,5.593 8.469,13.52C8.469,21.447 14.975,27.873 23,27.873Z" fill="#3A3A3A"/>
<path d="M46.225,42.246C46.238,42.042 46.238,41.837 46.225,41.632C46.167,40.877 45.953,40.14 45.594,39.462C44.182,36.702 40.221,35.451 36.917,34.744C34.559,34.253 32.164,33.937 29.753,33.8L27.23,33.611L26.095,33.611L24.682,33.611L21.302,33.611L19.89,33.611L18.754,33.611L16.232,33.8C13.821,33.937 11.426,34.253 9.068,34.744C5.763,35.357 1.803,36.631 0.39,39.462C0.032,40.14 -0.183,40.877 -0.24,41.632C-0.253,41.837 -0.253,42.042 -0.24,42.246C-0.252,42.45 -0.252,42.655 -0.24,42.859C-0.172,43.608 0.051,44.337 0.416,45.006C1.828,47.766 5.789,49.017 9.093,49.725C11.455,50.192 13.849,50.508 16.257,50.668L18.78,50.833L19.385,50.833L19.915,50.833L26.12,50.833L26.65,50.833L27.255,50.833L29.778,50.668C32.186,50.508 34.58,50.192 36.942,49.725C40.246,49.088 44.207,47.837 45.619,45.006C45.967,44.315 46.18,43.573 46.25,42.812C46.253,42.623 46.245,42.434 46.225,42.246Z" fill="#3A3A3A"/>
</svg>
