<svg width="58" height="66" viewBox="0 0 58 66" fill="none" xmlns="http://www.w3.org/2000/svg" xmlns:xlink="http://www.w3.org/1999/xlink">
<path d="M50.748,0C48.953,-0.002 47.498,1.448 47.496,3.243C47.494,5.036 48.946,6.491 50.739,6.493C52.532,6.495 53.988,5.043 53.99,3.249C53.991,1.456 52.541,0.001 50.748,0Z" fill="#F7F7F7"/>
<path d="M51.312,15.473C51.313,14.417 50.459,13.562 49.406,13.561C48.35,13.56 47.494,14.415 47.493,15.469C47.493,16.524 48.347,17.38 49.401,17.38C50.457,17.382 51.312,16.527 51.312,15.473Z" fill="#F7F7F7"/>
<path d="M55.457,8.418C54.196,8.415 53.171,9.435 53.171,10.696C53.168,11.959 54.191,12.979 55.452,12.982C56.711,12.982 57.737,11.963 57.737,10.701C57.739,9.441 56.717,8.418 55.457,8.418Z" fill="#F7F7F7"/>
<path d="M6.085,50.961C3.544,53.502 3.544,57.636 6.085,60.177C8.626,62.718 12.761,62.718 15.303,60.177L34.179,41.301L15.747,41.301L6.085,50.961Z" fill="#F7F7F7"/>
<path d="M38.845,15.621C37.307,14.081 34.803,14.081 33.264,15.621C32.269,16.616 31.919,18.014 32.211,19.294L31.958,19.548L3.316,48.19C-0.754,52.259 -0.754,58.879 3.316,62.948C7.383,67.018 14.005,67.018 18.072,62.948L46.716,34.306L46.968,34.053C48.249,34.345 49.648,33.994 50.643,32.999C52.181,31.46 52.182,28.957 50.643,27.418L38.845,15.621ZM45.221,33.149L37.812,40.559L16.748,61.623C13.404,64.966 7.984,64.966 4.64,61.623C1.297,58.279 1.297,52.859 4.64,49.515L25.6,28.555L33.114,21.043L33.473,20.681C33.523,20.736 33.574,20.788 33.626,20.84L45.423,32.638C45.474,32.69 45.528,32.74 45.581,32.79L45.221,33.149ZM49.316,31.674C48.758,32.233 47.96,32.405 47.252,32.192L46.715,31.656L34.608,19.548L34.071,19.011C33.858,18.304 34.031,17.505 34.589,16.946C35.398,16.137 36.711,16.137 37.52,16.946L49.316,28.742C50.126,29.552 50.126,30.864 49.316,31.674Z" fill="#F7F7F7"/>
</svg>
