<svg width="72" height="56" viewBox="0 0 72 56" fill="none" xmlns="http://www.w3.org/2000/svg" xmlns:xlink="http://www.w3.org/1999/xlink">
<path d="M43.864,0.169L68.056,12.392C70.217,13.484 71.189,15.943 70.537,18.16C69.266,22.487 69.409,24.301 70.238,26.354C71.074,28.427 70.493,31.063 68.329,32.433L34.908,53.588C33.506,54.476 31.722,54.613 30.173,53.855L17.692,47.696L12.478,45.08L8.773,43.187L6.513,42.002L5.341,41.366L4.493,40.879C1.18,38.879 0.149,34.817 0.164,31.709C0.179,28.552 1.263,24.612 4.274,22.445L5.251,21.774L8.038,19.95L14.685,15.706L39.088,0.383C40.539,-0.523 42.349,-0.596 43.864,0.169ZM63.108,22.737L34.92,40.58L34.57,40.782L34.208,40.953C33.851,42.277 33.726,43.231 33.739,44.116C33.747,44.642 33.803,45.181 33.92,45.794L34.056,46.435L63.786,27.616L63.552,26.81C63.272,25.738 63.126,24.675 63.102,23.572L63.108,22.737ZM7.099,29.203C6.847,29.871 6.669,30.727 6.664,31.74C6.653,33.923 7.436,35.063 7.852,35.314L8.851,35.882L10.887,36.965L16.638,39.9L27.287,45.196C27.261,44.87 27.245,44.542 27.24,44.212C27.222,43.009 27.353,41.83 27.611,40.596L27.828,39.659L7.099,29.203ZM43.383,10.471C41.793,9.638 39.829,10.252 38.996,11.842C38.222,13.318 38.696,15.117 40.041,16.034L40.367,16.229L47.192,19.804C48.782,20.637 50.746,20.023 51.579,18.433C52.352,16.957 51.878,15.158 50.534,14.241L50.208,14.046L43.383,10.471Z" clip-rule="evenodd" fill-rule="evenodd" fill="#F7F7F7"/>
</svg>
