<svg width="36" height="36" viewBox="0 0 36 36" fill="none" xmlns="http://www.w3.org/2000/svg" xmlns:xlink="http://www.w3.org/1999/xlink">
<path d="M33.694,30.973L27.178,24.475C29.28,21.796 30.421,18.489 30.417,15.083C30.417,12.051 29.517,9.086 27.833,6.565C26.148,4.043 23.753,2.078 20.951,0.917C18.149,-0.243 15.066,-0.547 12.092,0.045C9.118,0.636 6.385,2.097 4.241,4.241C2.097,6.385 0.636,9.118 0.045,12.092C-0.547,15.066 -0.243,18.149 0.917,20.951C2.078,23.753 4.043,26.148 6.565,27.833C9.086,29.517 12.051,30.417 15.083,30.417C18.489,30.421 21.796,29.28 24.475,27.178L30.973,33.694C31.151,33.874 31.363,34.016 31.596,34.114C31.83,34.211 32.08,34.261 32.333,34.261C32.586,34.261 32.837,34.211 33.07,34.114C33.304,34.016 33.516,33.874 33.694,33.694C33.874,33.516 34.016,33.304 34.114,33.07C34.211,32.837 34.261,32.586 34.261,32.333C34.261,32.08 34.211,31.83 34.114,31.596C34.016,31.363 33.874,31.151 33.694,30.973ZM3.583,15.083C3.583,12.809 4.258,10.585 5.521,8.694C6.785,6.803 8.581,5.329 10.682,4.459C12.784,3.588 15.096,3.361 17.327,3.804C19.558,4.248 21.607,5.343 23.215,6.952C24.823,8.56 25.919,10.609 26.362,12.84C26.806,15.071 26.578,17.383 25.708,19.484C24.838,21.586 23.364,23.382 21.472,24.645C19.581,25.909 17.358,26.583 15.083,26.583C12.033,26.583 9.108,25.372 6.952,23.215C4.795,21.058 3.583,18.133 3.583,15.083Z" fill="#5F5F5F"/>
</svg>
