<svg width="20" height="18" viewBox="0 0 20 18" fill="none" xmlns="http://www.w3.org/2000/svg" xmlns:xlink="http://www.w3.org/1999/xlink">
<path d="M1.1,8.358L4.7,11.383L3.7,15.6C3.6,16.15 3.8,16.7 4.3,16.975C4.5,17.158 4.8,17.25 5.1,17.25C5.3,17.25 5.5,17.25 5.7,17.158C5.7,17.158 5.8,17.158 5.8,17.067L9.9,14.958L14,17.067C14,17.067 14.1,17.067 14.1,17.158C14.6,17.342 15.2,17.342 15.6,17.067C16.1,16.792 16.3,16.242 16.2,15.692L15.2,11.475C15.6,11.2 16.2,10.65 16.8,10.1L18.7,8.542L18.8,8.45C19.2,8.083 19.3,7.533 19.1,7.075C18.9,6.617 18.5,6.25 17.9,6.158L17.8,6.158L13.1,5.7L11.2,1.758C11.2,1.758 11.2,1.667 11.1,1.667C11,1.025 10.5,0.75 10,0.75C9.5,0.75 9,1.025 8.7,1.483C8.7,1.483 8.7,1.575 8.6,1.575L6.7,5.517L2,5.975L1.9,5.975C1.4,6.067 0.9,6.433 0.7,6.892C0.6,7.442 0.7,7.992 1.1,8.358ZM10,12.942L10,3.317L11.7,6.8C11.8,7.075 12.2,7.258 12.5,7.35L16.7,7.808L13.6,10.375C13.3,10.558 13.2,10.925 13.3,11.292C13.3,11.475 13.8,13.308 14.1,15.05L10.5,13.125C10.3,12.942 10.2,12.942 10,12.942Z" fill="#FFB905"/>
</svg>
