<svg width="52" height="54" viewBox="0 0 52 54" fill="none" xmlns="http://www.w3.org/2000/svg" xmlns:xlink="http://www.w3.org/1999/xlink">
<path d="M29.392,12.667L32.059,12.667C32.766,12.668 33.443,12.949 33.943,13.449C34.443,13.949 34.724,14.626 34.725,15.333L34.725,18C34.725,18.707 35.006,19.386 35.506,19.886C36.006,20.386 36.685,20.667 37.392,20.667C38.099,20.667 38.777,20.386 39.278,19.886C39.778,19.386 40.059,18.707 40.059,18L40.059,15.333C40.056,13.212 39.213,11.179 37.713,9.679C36.213,8.179 34.18,7.336 32.059,7.333L29.392,7.333C28.685,7.333 28.006,7.614 27.506,8.114C27.006,8.614 26.725,9.293 26.725,10C26.725,10.707 27.006,11.385 27.506,11.886C28.006,12.386 28.685,12.667 29.392,12.667ZM18.725,36.667L16.059,36.667C15.352,36.666 14.674,36.385 14.174,35.885C13.674,35.385 13.393,34.707 13.392,34L13.392,31.333C13.392,30.626 13.111,29.948 12.611,29.448C12.111,28.948 11.433,28.667 10.725,28.667C10.018,28.667 9.34,28.948 8.84,29.448C8.34,29.948 8.059,30.626 8.059,31.333L8.059,34C8.061,36.121 8.905,38.155 10.404,39.654C11.904,41.154 13.938,41.998 16.059,42L18.725,42C19.433,42 20.111,41.719 20.611,41.219C21.111,40.719 21.392,40.041 21.392,39.333C21.392,38.626 21.111,37.948 20.611,37.448C20.111,36.948 19.433,36.667 18.725,36.667ZM48.059,34C48.766,34 49.444,33.719 49.944,33.219C50.444,32.719 50.725,32.041 50.725,31.333C50.725,30.626 50.444,29.948 49.944,29.448C49.444,28.948 48.766,28.667 48.059,28.667L40.059,28.667L40.059,27.333C40.059,26.626 39.778,25.948 39.278,25.448C38.777,24.948 38.099,24.667 37.392,24.667C36.685,24.667 36.006,24.948 35.506,25.448C35.006,25.948 34.725,26.626 34.725,27.333L34.725,28.667L26.725,28.667C26.018,28.667 25.34,28.948 24.84,29.448C24.34,29.948 24.059,30.626 24.059,31.333C24.059,32.041 24.34,32.719 24.84,33.219C25.34,33.719 26.018,34 26.725,34L40.55,34C39.947,36.451 38.833,38.747 37.282,40.738C36.647,39.915 36.086,39.038 35.604,38.117C35.444,37.806 35.225,37.529 34.958,37.302C34.691,37.075 34.383,36.903 34.049,36.796C33.716,36.689 33.365,36.648 33.016,36.676C32.667,36.705 32.327,36.801 32.016,36.961C31.704,37.121 31.427,37.34 31.2,37.607C30.974,37.874 30.802,38.183 30.694,38.516C30.477,39.189 30.537,39.92 30.859,40.55C31.578,41.937 32.434,43.249 33.417,44.464C31.482,45.869 29.282,46.866 26.95,47.395C26.261,47.547 25.659,47.966 25.279,48.561C24.898,49.156 24.769,49.878 24.919,50.568C25.07,51.258 25.488,51.86 26.083,52.242C26.677,52.624 27.398,52.755 28.088,52.606C31.434,51.866 34.573,50.388 37.275,48.281C40,50.389 43.159,51.866 46.525,52.604C46.867,52.68 47.22,52.687 47.565,52.626C47.91,52.565 48.239,52.436 48.534,52.248C48.829,52.059 49.085,51.814 49.285,51.527C49.486,51.24 49.628,50.916 49.703,50.574C49.778,50.232 49.786,49.879 49.725,49.534C49.663,49.189 49.535,48.86 49.346,48.565C49.158,48.27 48.913,48.015 48.626,47.814C48.339,47.613 48.015,47.471 47.673,47.396C45.326,46.874 43.108,45.886 41.15,44.489C43.616,41.454 45.278,37.847 45.983,34L48.059,34ZM16.138,23.981C16.311,24.665 16.749,25.252 17.355,25.615C17.961,25.977 18.686,26.084 19.37,25.913C20.055,25.741 20.644,25.306 21.008,24.701C21.372,24.096 21.482,23.372 21.312,22.686L16.626,3.94C16.297,2.624 15.538,1.456 14.468,0.621C13.399,-0.213 12.082,-0.667 10.725,-0.667C9.369,-0.667 8.051,-0.213 6.982,0.621C5.913,1.456 5.153,2.624 4.824,3.94L0.138,22.686C-0.031,23.372 0.078,24.096 0.442,24.701C0.806,25.306 1.395,25.741 2.08,25.913C2.765,26.084 3.49,25.977 4.096,25.615C4.702,25.252 5.139,24.665 5.313,23.981L6.807,18L14.643,18L16.138,23.981ZM8.141,12.667L9.999,5.234C10.055,5.087 10.154,4.96 10.284,4.87C10.413,4.78 10.568,4.732 10.725,4.732C10.883,4.732 11.037,4.78 11.167,4.87C11.297,4.96 11.396,5.087 11.452,5.234L13.31,12.667L8.141,12.667Z" fill="#F7F7F7"/>
</svg>
