<svg width="40" height="40" viewBox="0 0 40 40" fill="none" xmlns="http://www.w3.org/2000/svg" xmlns:xlink="http://www.w3.org/1999/xlink">
<path d="M27.714,3.5L33.594,3.5L33.594,0.5L27.714,0.5L27.714,3.5ZM33.594,3.5C35.185,3.5 36.5,4.806 36.5,6.446L39.5,6.446C39.5,3.175 36.868,0.5 33.594,0.5L33.594,3.5ZM36.5,6.446L36.5,12.375L39.5,12.375L39.5,6.446L36.5,6.446ZM36.5,12.375C36.5,14.014 35.185,15.322 33.594,15.322L33.594,18.322C36.868,18.322 39.5,15.645 39.5,12.375L36.5,12.375ZM33.594,15.322L27.714,15.322L27.714,18.322L33.594,18.322L33.594,15.322ZM27.714,15.322C26.12,15.322 24.806,14.013 24.806,12.375L21.806,12.375C21.806,15.645 24.438,18.322 27.714,18.322L27.714,15.322ZM24.806,12.375L24.806,6.446L21.806,6.446L21.806,12.375L24.806,12.375ZM24.806,6.446C24.806,4.807 26.12,3.5 27.714,3.5L27.714,0.5C24.439,0.5 21.806,3.174 21.806,6.446L24.806,6.446ZM6.408,3.5L12.286,3.5L12.286,0.5L6.408,0.5L6.408,3.5ZM12.286,3.5C13.88,3.5 15.194,4.807 15.194,6.446L18.194,6.446C18.194,3.174 15.561,0.5 12.286,0.5L12.286,3.5ZM15.194,6.446L15.194,12.375L18.194,12.375L18.194,6.446L15.194,6.446ZM15.194,12.375C15.194,14.013 13.88,15.322 12.286,15.322L12.286,18.322C15.562,18.322 18.194,15.645 18.194,12.375L15.194,12.375ZM12.286,15.322L6.408,15.322L6.408,18.322L12.286,18.322L12.286,15.322ZM6.408,15.322C4.815,15.322 3.5,14.013 3.5,12.375L0.5,12.375C0.5,15.645 3.132,18.322 6.408,18.322L6.408,15.322ZM3.5,12.375L3.5,6.446L0.5,6.446L0.5,12.375L3.5,12.375ZM3.5,6.446C3.5,4.807 4.814,3.5 6.408,3.5L6.408,0.5C3.133,0.5 0.5,3.174 0.5,6.446L3.5,6.446ZM6.408,24.678L12.286,24.678L12.286,21.678L6.408,21.678L6.408,24.678ZM12.286,24.678C13.88,24.678 15.194,25.985 15.194,27.626L18.194,27.626C18.194,24.353 15.562,21.678 12.286,21.678L12.286,24.678ZM15.194,27.626L15.194,33.554L18.194,33.554L18.194,27.626L15.194,27.626ZM15.194,33.554C15.194,35.193 13.88,36.5 12.286,36.5L12.286,39.5C15.561,39.5 18.194,36.826 18.194,33.554L15.194,33.554ZM12.286,36.5L6.408,36.5L6.408,39.5L12.286,39.5L12.286,36.5ZM6.408,36.5C4.814,36.5 3.5,35.193 3.5,33.554L0.5,33.554C0.5,36.826 3.133,39.5 6.408,39.5L6.408,36.5ZM3.5,33.554L3.5,27.626L0.5,27.626L0.5,33.554L3.5,33.554ZM3.5,27.626C3.5,25.985 4.815,24.678 6.408,24.678L6.408,21.678C3.132,21.678 0.5,24.353 0.5,27.626L3.5,27.626ZM27.714,24.678L33.594,24.678L33.594,21.678L27.714,21.678L27.714,24.678ZM33.594,24.678C35.185,24.678 36.5,25.984 36.5,27.626L39.5,27.626C39.5,24.354 36.868,21.678 33.594,21.678L33.594,24.678ZM36.5,27.626L36.5,33.554L39.5,33.554L39.5,27.626L36.5,27.626ZM36.5,33.554C36.5,35.194 35.185,36.5 33.594,36.5L33.594,39.5C36.868,39.5 39.5,36.825 39.5,33.554L36.5,33.554ZM33.594,36.5L27.714,36.5L27.714,39.5L33.594,39.5L33.594,36.5ZM27.714,36.5C26.12,36.5 24.806,35.193 24.806,33.554L21.806,33.554C21.806,36.826 24.439,39.5 27.714,39.5L27.714,36.5ZM24.806,33.554L24.806,27.626L21.806,27.626L21.806,33.554L24.806,33.554ZM24.806,27.626C24.806,25.985 26.12,24.678 27.714,24.678L27.714,21.678C24.438,21.678 21.806,24.353 21.806,27.626L24.806,27.626Z" fill="#5F5F5F"/>
</svg>
