<svg width="78" height="40" viewBox="0 0 78 40" fill="none" xmlns="http://www.w3.org/2000/svg" xmlns:xlink="http://www.w3.org/1999/xlink">
<path d="M75.134,9.986C76.718,9.986 78,8.704 78,7.12C78,5.536 76.718,4.254 75.134,4.254L58.575,4.254L58.575,2.819C58.575,1.235 57.293,-0.047 55.709,-0.047L22.91,-0.047C21.326,-0.047 20.044,1.235 20.044,2.819L20.044,11.575L10.946,11.575C9.981,11.575 9.079,12.061 8.55,12.869L0.47,25.171C-0.109,26.048 -0.157,27.177 0.344,28.104C0.844,29.029 1.813,29.611 2.866,29.611L3.099,29.611C3.168,34.271 6.97,38.045 11.649,38.045C13.934,38.045 16.001,37.133 17.539,35.672C19.075,37.137 21.143,38.045 23.43,38.045C25.717,38.045 27.782,37.133 29.32,35.672C30.856,37.137 32.923,38.045 35.21,38.045C37.497,38.045 39.563,37.133 41.101,35.672C42.639,37.137 44.706,38.045 46.991,38.045C49.276,38.045 51.342,37.133 52.881,35.672C54.42,37.137 56.487,38.045 58.772,38.045C63.495,38.045 67.329,34.204 67.329,29.487C67.329,29.373 67.299,29.271 67.293,29.157C67.639,28.943 67.948,28.668 68.176,28.32L76.256,16.018C76.837,15.139 76.882,14.011 76.382,13.083C75.879,12.156 74.909,11.577 73.86,11.577L58.575,11.577L58.575,9.988L75.134,9.986ZM11.649,32.315C10.09,32.315 8.819,31.042 8.819,29.489C8.819,27.93 10.09,26.661 11.649,26.661C13.208,26.661 14.477,27.93 14.477,29.489C14.477,31.046 13.206,32.315 11.649,32.315ZM23.428,32.315C21.869,32.315 20.598,31.042 20.598,29.489C20.598,27.93 21.869,26.661 23.428,26.661C24.987,26.661 26.255,27.93 26.255,29.489C26.255,31.046 24.989,32.315 23.428,32.315ZM35.207,32.315C33.648,32.315 32.377,31.042 32.377,29.489C32.377,27.93 33.648,26.661 35.207,26.661C36.766,26.661 38.034,27.93 38.034,29.489C38.034,31.046 36.768,32.315 35.207,32.315ZM46.985,32.315C45.428,32.315 44.158,31.042 44.158,29.489C44.158,27.93 45.428,26.661 46.985,26.661C48.543,26.661 49.811,27.93 49.811,29.489C49.813,31.046 48.546,32.315 46.985,32.315ZM58.764,32.315C57.205,32.315 55.937,31.042 55.937,29.489C55.937,27.93 57.207,26.661 58.764,26.661C60.321,26.661 61.59,27.93 61.59,29.489C61.592,31.046 60.325,32.315 58.764,32.315Z" fill="#F7F7F7"/>
</svg>
