<svg width="48" height="58" viewBox="0 0 48 58" fill="none" xmlns="http://www.w3.org/2000/svg" xmlns:xlink="http://www.w3.org/1999/xlink">
<path d="M0.25,6.625C0.25,2.69 3.44,-0.5 7.375,-0.5L40.625,-0.5C44.56,-0.5 47.75,2.69 47.75,6.625L47.75,54.125C47.75,55.001 47.268,55.806 46.496,56.219C45.723,56.632 44.786,56.587 44.058,56.101L38.25,52.229L32.442,56.101C31.645,56.633 30.605,56.633 29.808,56.101L24,52.229L18.192,56.101C17.395,56.633 16.355,56.633 15.558,56.101L9.75,52.229L3.942,56.101C3.214,56.587 2.277,56.632 1.504,56.219C0.732,55.806 0.25,55.001 0.25,54.125L0.25,6.625ZM12.125,23.25C10.813,23.25 9.75,24.313 9.75,25.625C9.75,26.937 10.813,28 12.125,28L35.875,28C37.187,28 38.25,26.937 38.25,25.625C38.25,24.313 37.187,23.25 35.875,23.25L12.125,23.25ZM16.875,16.125C16.875,14.813 17.938,13.75 19.25,13.75L28.75,13.75C30.062,13.75 31.125,14.813 31.125,16.125C31.125,17.437 30.062,18.5 28.75,18.5L19.25,18.5C17.938,18.5 16.875,17.437 16.875,16.125ZM16.875,32.75C15.563,32.75 14.5,33.813 14.5,35.125C14.5,36.437 15.563,37.5 16.875,37.5L31.125,37.5C32.437,37.5 33.5,36.437 33.5,35.125C33.5,33.813 32.437,32.75 31.125,32.75L16.875,32.75Z" clip-rule="evenodd" fill-rule="evenodd" fill="#3A3A3A"/>
</svg>
