<svg width="58" height="58" viewBox="0 0 58 58" fill="none" xmlns="http://www.w3.org/2000/svg" xmlns:xlink="http://www.w3.org/1999/xlink">
<path d="M2.416,31.416L9.666,31.416L9.666,50.749C9.666,52.672 10.43,54.516 11.79,55.876C13.149,57.236 14.993,57.999 16.916,57.999L21.749,57.999C22.39,57.999 23.005,57.745 23.458,57.292C23.912,56.838 24.166,56.224 24.166,55.583L24.166,45.111C24.166,43.83 24.675,42.6 25.582,41.694C26.488,40.787 27.718,40.278 28.999,40.278C30.281,40.278 31.511,40.787 32.417,41.694C33.324,42.6 33.833,43.83 33.833,45.111L33.833,55.583C33.833,56.224 34.087,56.838 34.541,57.292C34.994,57.745 35.609,57.999 36.249,57.999L41.083,57.999C43.006,57.999 44.85,57.236 46.209,55.876C47.569,54.516 48.333,52.672 48.333,50.749L48.333,31.416L55.583,31.416C56.061,31.416 56.528,31.274 56.925,31.009C57.322,30.743 57.632,30.366 57.815,29.924C57.998,29.483 58.046,28.997 57.953,28.528C57.859,28.059 57.629,27.629 57.291,27.291L30.708,0.708C30.255,0.255 29.64,0 28.999,0C28.359,0 27.744,0.255 27.291,0.708L0.708,27.291C0.37,27.629 0.14,28.059 0.046,28.528C-0.047,28.997 0.001,29.483 0.184,29.924C0.367,30.366 0.676,30.743 1.074,31.009C1.471,31.274 1.938,31.416 2.416,31.416Z" fill="#3ABD95"/>
</svg>
