<svg width="66" height="72" viewBox="0 0 66 72" fill="none" xmlns="http://www.w3.org/2000/svg" xmlns:xlink="http://www.w3.org/1999/xlink">
<path d="M39.136,39.715C38.803,39.145 38.356,38.696 37.788,38.379C37.394,38.153 36.828,37.944 36.087,37.759C36.781,37.522 37.335,37.228 37.756,36.864C38.178,36.504 38.503,36.088 38.724,35.624C38.946,35.152 39.061,34.656 39.061,34.133C39.061,33.416 38.852,32.753 38.427,32.152C38.001,31.55 37.398,31.088 36.612,30.769C36.307,30.643 35.94,30.549 35.548,30.473L35.548,27.681L32.866,27.681L32.866,30.285L31.142,30.285L31.142,27.681L28.46,27.681L28.46,30.285L24.369,30.285L24.369,32.475L24.994,32.475C25.409,32.475 25.689,32.512 25.84,32.589C25.987,32.663 26.091,32.767 26.152,32.895C26.212,33.022 26.242,33.324 26.242,33.792L26.242,42.622C26.242,43.085 26.212,43.385 26.152,43.514C26.091,43.643 25.987,43.749 25.84,43.82C25.691,43.892 25.411,43.927 24.994,43.927L24.369,43.927L24.369,46.118L28.46,46.118L28.46,48.722L31.14,48.722L31.14,46.118L32.666,46.118C32.735,46.118 32.797,46.116 32.868,46.116L32.868,48.722L35.546,48.722L35.546,45.892C35.997,45.806 36.397,45.697 36.73,45.559C37.657,45.191 38.372,44.65 38.877,43.941C39.385,43.236 39.637,42.462 39.637,41.621C39.633,40.924 39.469,40.285 39.136,39.715ZM30.156,32.84L31.892,32.84C32.907,32.84 33.609,32.902 34.004,33.028C34.394,33.151 34.698,33.363 34.908,33.657C35.113,33.953 35.217,34.307 35.217,34.723C35.217,35.124 35.107,35.477 34.888,35.784C34.671,36.09 34.341,36.317 33.908,36.474C33.471,36.623 32.803,36.699 31.892,36.699L30.156,36.699L30.156,32.84ZM35.06,42.622C34.755,43.016 34.375,43.275 33.932,43.398C33.491,43.522 32.937,43.588 32.261,43.588L31.105,43.588C30.721,43.588 30.486,43.567 30.397,43.526C30.309,43.484 30.248,43.41 30.211,43.308C30.18,43.224 30.162,42.94 30.154,42.452L30.154,39.023L32.204,39.023C33.101,39.023 33.769,39.107 34.208,39.274C34.647,39.439 34.976,39.685 35.194,40.011C35.413,40.338 35.521,40.734 35.521,41.204C35.525,41.756 35.37,42.233 35.06,42.622ZM62.154,50.364C61.95,47.446 60.58,44.102 58.061,40.528C57.512,39.752 56.905,38.974 56.266,38.2C56.905,37.424 57.512,36.649 58.061,35.871C62.214,29.989 63.284,24.695 61.074,20.97C59.24,17.882 55.423,16.25 50.027,16.25C48.199,16.25 46.244,16.44 44.208,16.801C42.277,11.644 39.643,7.788 36.589,5.839C36.673,5.482 36.732,5.116 36.732,4.736C36.734,2.12 34.614,0 31.998,0C29.382,0 27.262,2.12 27.262,4.736C27.262,5.118 27.319,5.484 27.406,5.839C24.353,7.788 21.722,11.644 19.788,16.801C17.752,16.44 15.799,16.25 13.971,16.25C8.575,16.25 4.756,17.882 2.924,20.97C0.714,24.697 1.784,29.991 5.938,35.871C6.488,36.649 7.094,37.424 7.732,38.2C7.094,38.976 6.488,39.752 5.938,40.528C3.418,44.096 2.052,47.442 1.847,50.364C0.181,51.096 -0.985,52.756 -0.985,54.694C-0.985,57.307 1.135,59.429 3.751,59.429C4.742,59.429 5.661,59.124 6.421,58.602C8.391,59.621 10.918,60.156 13.973,60.156C15.801,60.156 17.752,59.964 19.788,59.606C22.641,67.213 27.012,72 32,72C36.988,72 41.358,67.21 44.208,59.606C46.244,59.966 48.196,60.156 50.027,60.156C53.08,60.156 55.61,59.615 57.581,58.602C58.343,59.124 59.258,59.429 60.249,59.429C62.865,59.429 64.985,57.309 64.985,54.694C64.983,52.756 63.817,51.096 62.154,50.364ZM50.027,18.208C53.282,18.208 57.545,18.86 59.385,21.968C61.15,24.948 60.083,29.603 56.458,34.74C55.997,35.393 55.496,36.051 54.965,36.701C52.745,34.243 50.108,31.84 47.159,29.572C46.689,25.602 45.911,21.93 44.863,18.694C46.681,18.388 48.421,18.208 50.027,18.208ZM38.993,50.001C36.693,51.365 34.343,52.572 32,53.628C29.657,52.574 27.306,51.369 25.005,50.001C22.784,48.684 20.687,47.266 18.714,45.794C18.444,43.349 18.285,40.814 18.285,38.206C18.285,35.596 18.444,33.063 18.714,30.618C20.687,29.144 22.784,27.728 25.007,26.409C27.31,25.046 29.659,23.839 32,22.785C34.343,23.839 36.695,25.044 38.993,26.409C41.217,27.728 43.313,29.144 45.284,30.618C45.556,33.063 45.715,35.598 45.715,38.206C45.715,40.814 45.556,43.349 45.284,45.794C43.313,47.264 41.219,48.684 38.993,50.001ZM44.941,48.469C44.451,51.665 43.752,54.633 42.868,57.301C40.164,56.7 37.32,55.818 34.42,54.649C36.279,53.749 38.142,52.777 39.994,51.68C41.712,50.661 43.358,49.588 44.941,48.469ZM29.58,54.654C26.681,55.824 23.836,56.706 21.132,57.305C20.252,54.641 19.549,51.668 19.061,48.473C20.642,49.588 22.286,50.667 24.004,51.688C25.854,52.779 27.719,53.755 29.58,54.654ZM16.571,44.123C14.227,42.215 12.129,40.228 10.324,38.204C12.129,36.178 14.227,34.19 16.571,32.283C16.42,34.205 16.326,36.174 16.326,38.204C16.326,40.234 16.42,42.203 16.571,44.123ZM19.061,27.936C19.549,24.74 20.252,21.768 21.132,19.103C23.836,19.703 26.681,20.584 29.58,21.752C27.719,22.649 25.856,23.625 24.008,24.72C22.288,25.739 20.644,26.819 19.061,27.936ZM34.42,21.752C37.318,20.584 40.164,19.703 42.868,19.103C43.748,21.766 44.451,24.74 44.941,27.936C43.358,26.819 41.716,25.739 39.998,24.72C38.144,23.625 36.281,22.649 34.42,21.752ZM47.429,32.281C49.773,34.188 51.875,36.176 53.676,38.202C51.873,40.228 49.773,42.217 47.429,44.121C47.582,42.201 47.674,40.232 47.674,38.202C47.674,36.172 47.58,34.201 47.429,32.281ZM28.283,7.633C29.149,8.74 30.484,9.467 32,9.467C33.517,9.467 34.851,8.742 35.717,7.633C38.238,9.348 40.48,12.737 42.202,17.228C38.936,17.965 35.495,19.113 32,20.637C28.505,19.113 25.066,17.965 21.798,17.228C23.52,12.737 25.762,9.348 28.283,7.633ZM7.54,34.74C3.914,29.603 2.846,24.948 4.613,21.968C6.455,18.86 10.72,18.208 13.973,18.208C15.579,18.208 17.319,18.388 19.135,18.697C18.089,21.934 17.311,25.604 16.841,29.575C13.888,31.84 11.251,34.243 9.033,36.705C8.502,36.051 8.003,35.393 7.54,34.74ZM13.973,58.197C12.033,58.197 9.739,57.952 7.809,57.102C8.23,56.396 8.489,55.577 8.489,54.694C8.489,52.123 6.435,50.04 3.88,49.97C4.188,47.525 5.409,44.686 7.54,41.666C8.003,41.012 8.504,40.357 9.033,39.703C11.251,42.164 13.888,44.564 16.841,46.833C17.311,50.8 18.089,54.47 19.133,57.713C17.319,58.017 15.579,58.197 13.973,58.197ZM32,70.041C27.993,70.041 24.331,65.783 21.798,59.176C25.066,58.442 28.505,57.294 32,55.767C35.495,57.292 38.934,58.44 42.202,59.176C39.669,65.783 36.007,70.041 32,70.041ZM50.027,58.197C48.421,58.197 46.681,58.013 44.867,57.707C45.911,54.47 46.691,50.804 47.159,46.827C50.112,44.564 52.749,42.162 54.965,39.697C55.496,40.352 55.994,41.006 56.458,41.66C58.59,44.68 59.81,47.523 60.12,49.966C57.561,50.034 55.508,52.119 55.508,54.69C55.508,55.573 55.766,56.392 56.189,57.1C54.258,57.95 51.969,58.197 50.027,58.197Z" fill="#F7F7F7"/>
</svg>
