<svg width="60" height="54" viewBox="0 0 60 54" fill="none" xmlns="http://www.w3.org/2000/svg" xmlns:xlink="http://www.w3.org/1999/xlink">
<path d="M53.942,5.509C52.373,3.924 50.505,2.666 48.447,1.81C46.388,0.954 44.179,0.515 41.949,0.521C39.719,0.515 37.511,0.954 35.452,1.81C33.393,2.666 31.525,3.924 29.957,5.509L29,6.5L28.043,5.543C24.872,2.372 20.57,0.59 16.085,0.59C11.6,0.59 7.298,2.372 4.127,5.543C0.997,8.737 -0.757,13.03 -0.757,17.502C-0.757,21.973 0.997,26.267 4.127,29.46L27.257,52.659C27.738,53.139 28.389,53.409 29.068,53.409C29.747,53.409 30.399,53.139 30.879,52.659L54.01,29.46C57.141,26.256 58.889,21.95 58.876,17.471C58.863,12.991 57.091,8.695 53.942,5.509Z" fill="#F7F7F7"/>
</svg>
