<svg width="48" height="54" viewBox="0 0 48 54" fill="none" xmlns="http://www.w3.org/2000/svg" xmlns:xlink="http://www.w3.org/1999/xlink">
<path d="M46.72,34.56L41.92,29.733L41.92,17.84C41.984,13.424 40.447,9.133 37.595,5.761C34.742,2.389 30.766,0.162 26.4,-0.507C23.866,-0.84 21.29,-0.63 18.844,0.111C16.398,0.852 14.138,2.105 12.215,3.789C10.292,5.472 8.75,7.546 7.692,9.873C6.634,12.199 6.085,14.724 6.08,17.28L6.08,29.733L1.28,34.56C0.677,35.173 0.268,35.95 0.104,36.794C-0.059,37.638 0.029,38.512 0.36,39.306C0.69,40.1 1.246,40.779 1.96,41.258C2.674,41.737 3.513,41.995 4.373,42L13.333,42L13.333,42.907C13.458,45.614 14.65,48.161 16.65,49.991C18.649,51.82 21.292,52.782 24,52.667C26.707,52.782 29.351,51.82 31.35,49.991C33.349,48.161 34.542,45.614 34.667,42.907L34.667,42L43.627,42C44.486,41.995 45.326,41.737 46.039,41.258C46.753,40.779 47.31,40.1 47.64,39.306C47.97,38.512 48.059,37.638 47.895,36.794C47.732,35.95 47.323,35.173 46.72,34.56ZM29.333,42.907C29.185,44.189 28.548,45.365 27.555,46.19C26.561,47.015 25.288,47.424 24,47.333C22.712,47.424 21.439,47.015 20.445,46.19C19.451,45.365 18.814,44.189 18.667,42.907L18.667,42L29.333,42L29.333,42.907ZM6.693,36.667L9.84,33.52C10.339,33.024 10.735,32.434 11.005,31.784C11.275,31.134 11.414,30.437 11.413,29.733L11.413,17.28C11.415,15.481 11.801,13.703 12.546,12.066C13.291,10.429 14.378,8.969 15.733,7.787C17.07,6.575 18.655,5.669 20.377,5.13C22.099,4.591 23.917,4.433 25.707,4.667C28.79,5.167 31.59,6.765 33.589,9.166C35.588,11.567 36.653,14.61 36.587,17.733L36.587,29.733C36.582,30.435 36.717,31.131 36.982,31.781C37.248,32.431 37.639,33.022 38.133,33.52L41.307,36.667L6.693,36.667Z" fill="#272727"/>
</svg>
