<svg width="20" height="26" viewBox="0 0 20 26" fill="none" xmlns="http://www.w3.org/2000/svg" xmlns:xlink="http://www.w3.org/1999/xlink">
<path d="M8.268,0.548C9.34,-0.183 10.66,-0.183 11.732,0.548L18.268,5.003C19.34,5.734 20,7.084 20,8.545L20,17.455C20,18.916 19.34,20.266 18.268,20.997L11.732,25.452C10.66,26.183 9.34,26.183 8.268,25.452L1.732,20.997C0.66,20.266 0,18.916 0,17.455L0,8.545C0,7.084 0.66,5.734 1.732,5.003L8.268,0.548ZM14.129,13C14.129,13.538 13.759,13.975 13.303,13.975L10.826,13.975L10.826,16.9C10.826,17.438 10.456,17.875 10,17.875C9.544,17.875 9.174,17.438 9.174,16.9L9.174,13.975L6.697,13.975C6.241,13.975 5.871,13.538 5.871,13C5.871,12.462 6.241,12.025 6.697,12.025L9.174,12.025L9.174,9.1C9.174,8.562 9.544,8.125 10,8.125C10.456,8.125 10.826,8.562 10.826,9.1L10.826,12.025L13.303,12.025C13.759,12.025 14.129,12.462 14.129,13Z" clip-rule="evenodd" fill-rule="evenodd" fill="#3ABD95"/>
</svg>
